<svg width="19" height="20" viewBox="0 0 19 20" fill="none" xmlns="http://www.w3.org/2000/svg">
<path d="M18.4645 7.50197C17.9015 6.06333 16.7765 4.87696 15.3056 4.36044C13.7089 3.80028 12.0446 4.11829 10.4643 4.55454C10.4342 3.69122 10.5072 2.82539 10.6299 1.97059C10.6994 1.4882 11.0323 0.490231 10.2066 0.45609C9.52126 0.427653 9.51935 1.345 9.45267 1.81285C9.32368 2.71032 9.24751 3.61981 9.27216 4.52704C8.89251 4.46384 8.51763 4.32251 8.1395 4.24411C7.57555 4.12778 7.00118 4.05508 6.42489 4.05442C5.31438 4.05442 4.2184 4.34872 3.30453 4.99142C1.52987 6.24009 0.838816 8.41877 0.868855 10.5121C0.901707 12.7786 1.66925 14.943 2.96058 16.7917C3.53054 17.6079 4.18586 18.3906 4.99574 18.9795C5.78285 19.5517 6.662 19.8197 7.61634 19.9563C8.02161 20.0148 8.43415 20.0163 8.8381 19.9503C9.19091 19.8928 9.52122 19.7439 9.87115 19.6847C10.1354 19.6402 10.5081 19.8482 10.7638 19.9051C11.1998 20.0031 11.6484 20.0233 12.0925 19.9727C13.7176 19.7875 15.0052 19.0544 16.0746 17.8253C18.4266 15.1223 19.8282 10.984 18.4645 7.50197ZM17.3929 13.0454C17.0923 14.0994 16.6165 15.0629 16.0014 15.967C15.4567 16.7674 14.8254 17.5605 14.0162 18.1074C13.273 18.609 12.2671 18.8831 11.3709 18.8009C10.9151 18.7595 10.5 18.5404 10.0474 18.4974C9.5406 18.4497 9.07216 18.7209 8.57806 18.7883C6.63524 19.0525 5.10078 17.7328 4.04718 16.2701C2.7546 14.4752 1.98769 12.3307 2.06069 10.1005C2.12773 8.05682 3.10199 5.94802 5.22914 5.38845C6.29321 5.10903 7.41383 5.26962 8.46173 5.53927C8.91536 5.65528 9.38353 5.84368 9.85423 5.86896C10.2165 5.91068 10.6151 5.74505 10.9575 5.65083C13.0072 5.08688 15.3148 4.95028 16.7421 6.82677C18.0602 8.55939 17.9622 11.0532 17.3929 13.0454Z" fill="#181818"/>
<path d="M8.44751 11.2846C7.9547 11.4654 7.19477 11.7351 6.90583 12.2064C6.97634 12.0907 7.04618 11.9763 6.90489 12.2076C6.76387 12.439 6.83344 12.3253 6.90391 12.2096C6.48098 12.9063 7.07653 13.8132 7.88517 13.6975C8.68275 13.5837 8.75857 12.7982 8.74974 12.1489C8.74657 11.8783 8.73236 11.6035 8.68966 11.3358C8.66247 11.1683 8.58974 11.2322 8.44751 11.2846Z" fill="#181818"/>
<path d="M12.3125 11.8878C12.0368 11.695 11.7299 11.5442 11.422 11.4111C11.3468 11.3785 10.9791 11.1727 10.8944 11.2227C10.9058 11.2157 10.9168 11.2091 10.8938 11.223C10.8713 11.2369 10.8821 11.2303 10.8935 11.2233C10.8236 11.2679 10.8328 11.609 10.8274 11.6773C10.8015 12 10.7923 12.3272 10.8217 12.6493C10.8846 13.3578 11.4862 13.9698 12.2341 13.6113C12.9725 13.2575 12.9279 12.3177 12.3125 11.8878Z" fill="#181818"/>
<path d="M8.58873 2.31265C8.66494 0.0726489 6.13157 -0.277274 5.22778 0.168118C5.46329 2.75141 7.43427 2.80828 8.58873 2.31265Z" fill="#181818"/>
</svg>
