<svg width="24" height="25" viewBox="0 0 24 25" fill="none" xmlns="http://www.w3.org/2000/svg">
<path d="M22.6649 15.2198H18.6599C18.7044 14.9093 18.727 14.596 18.7274 14.2823C18.7274 12.5418 18.036 10.8726 16.8052 9.64192C15.5745 8.41121 13.9053 7.71981 12.1649 7.71981C10.4244 7.71981 8.75518 8.41121 7.52447 9.64192C6.29376 10.8726 5.60236 12.5418 5.60236 14.2823C5.60271 14.596 5.62527 14.9093 5.66986 15.2198H1.66486C1.51567 15.2198 1.3726 15.2791 1.26711 15.3846C1.16162 15.49 1.10236 15.6331 1.10236 15.7823C1.10236 15.9315 1.16162 16.0746 1.26711 16.1801C1.3726 16.2855 1.51567 16.3448 1.66486 16.3448H22.6649C22.814 16.3448 22.9571 16.2855 23.0626 16.1801C23.1681 16.0746 23.2274 15.9315 23.2274 15.7823C23.2274 15.6331 23.1681 15.49 23.0626 15.3846C22.9571 15.2791 22.814 15.2198 22.6649 15.2198ZM6.72736 14.2823C6.72725 13.5285 6.88387 12.7829 7.18728 12.0929C7.49068 11.4029 7.93424 10.7835 8.4898 10.274C9.04536 9.76454 9.70077 9.37615 10.4144 9.13349C11.1281 8.89083 11.8844 8.79921 12.6354 8.86444C13.3863 8.92967 14.1155 9.15032 14.7767 9.51239C15.4378 9.87446 16.0164 10.37 16.4758 10.9677C16.9352 11.5653 17.2654 12.2519 17.4452 12.9839C17.6251 13.7159 17.6509 14.4773 17.5208 15.2198H6.80892C6.75498 14.9102 6.72769 14.5966 6.72736 14.2823ZM7.16142 4.78449C7.09466 4.65097 7.08367 4.4964 7.13088 4.35478C7.17809 4.21316 7.27962 4.0961 7.41314 4.02934C7.54666 3.96258 7.70123 3.95159 7.84285 3.9988C7.98447 4.04601 8.10153 4.14754 8.16829 4.28106L8.91829 5.78106C8.98493 5.91458 8.9958 6.0691 8.9485 6.21063C8.90121 6.35216 8.79963 6.46911 8.66611 6.53574C8.53259 6.60238 8.37807 6.61325 8.23653 6.56595C8.095 6.51866 7.97806 6.41708 7.91142 6.28356L7.16142 4.78449ZM1.91142 9.53106C1.9444 9.46493 1.99008 9.40595 2.04586 9.35749C2.10165 9.30902 2.16643 9.27202 2.23651 9.2486C2.3066 9.22518 2.38061 9.2158 2.45432 9.22099C2.52803 9.22619 2.6 9.24585 2.66611 9.27887L4.16611 10.0289C4.29963 10.0955 4.40121 10.2125 4.4485 10.354C4.4958 10.4955 4.48493 10.65 4.41829 10.7836C4.35166 10.9171 4.23471 11.0187 4.09318 11.0659C3.95165 11.1132 3.79713 11.1024 3.66361 11.0357L2.16361 10.2857C2.09748 10.2528 2.0385 10.2071 1.99004 10.1513C1.94157 10.0955 1.90457 10.0307 1.88115 9.96065C1.85773 9.89056 1.84835 9.81655 1.85355 9.74284C1.85874 9.66913 1.8784 9.59716 1.91142 9.53106ZM19.9114 10.7836C19.8784 10.7174 19.8587 10.6455 19.8535 10.5718C19.8484 10.4981 19.8577 10.424 19.8812 10.354C19.9046 10.2839 19.9416 10.2191 19.99 10.1633C20.0385 10.1075 20.0975 10.0618 20.1636 10.0289L21.6636 9.27887C21.7971 9.21223 21.9516 9.20137 22.0932 9.24866C22.2347 9.29596 22.3517 9.39754 22.4183 9.53106C22.4849 9.66458 22.4958 9.8191 22.4485 9.96063C22.4012 10.1022 22.2996 10.2191 22.1661 10.2857L20.6661 11.0357C20.6 11.0688 20.528 11.0884 20.4543 11.0936C20.3806 11.0988 20.3066 11.0894 20.2365 11.066C20.1664 11.0426 20.1016 11.0056 20.0459 10.9571C19.9901 10.9087 19.9444 10.8497 19.9114 10.7836ZM15.4114 5.78106L16.1614 4.28106C16.2282 4.14754 16.3452 4.04601 16.4869 3.9988C16.6285 3.95159 16.7831 3.96258 16.9166 4.02934C17.0501 4.0961 17.1516 4.21316 17.1988 4.35478C17.246 4.4964 17.2351 4.65097 17.1683 4.78449L16.4183 6.28449C16.3517 6.41801 16.2347 6.51959 16.0932 6.56689C15.9516 6.61418 15.7971 6.60332 15.6636 6.53668C15.5301 6.47005 15.4285 6.3531 15.3812 6.21157C15.3339 6.07004 15.3448 5.91551 15.4114 5.78199V5.78106Z" fill="#FFBB00"/>
</svg>
