<svg width="16" height="20" viewBox="0 0 16 20" fill="none" xmlns="http://www.w3.org/2000/svg">
<path d="M13.0986 12.7357C12.9177 13.7905 12.4313 14.762 11.7049 15.5197C10.9786 16.2773 10.0472 16.7847 9.03607 16.9734C9.00613 16.9782 8.97591 16.9807 8.94563 16.9809C8.80919 16.9815 8.67757 16.9284 8.57696 16.8323C8.47635 16.7362 8.41415 16.6041 8.40274 16.4622C8.39134 16.3204 8.43156 16.1793 8.51541 16.0671C8.59926 15.9548 8.72057 15.8796 8.85519 15.8564C10.427 15.581 11.761 14.1885 12.0278 12.5471C12.0518 12.399 12.1312 12.2668 12.2486 12.1798C12.3067 12.1367 12.3724 12.106 12.4419 12.0893C12.5114 12.0727 12.5833 12.0705 12.6536 12.0829C12.7239 12.0953 12.7912 12.122 12.8516 12.1615C12.9121 12.2011 12.9644 12.2526 13.0057 12.3132C13.0471 12.3738 13.0765 12.4423 13.0925 12.5148C13.1084 12.5873 13.1105 12.6624 13.0986 12.7357ZM15.9999 11.8867C15.9999 14.0384 15.1804 16.102 13.7218 17.6235C12.2632 19.145 10.2849 19.9998 8.22211 19.9998C6.15932 19.9998 4.18101 19.145 2.72239 17.6235C1.26378 16.102 0.444336 14.0384 0.444336 11.8867C0.444336 9.29525 1.4256 6.64058 3.361 3.99629C3.40748 3.93189 3.4666 3.87859 3.53442 3.83996C3.60224 3.80132 3.67718 3.77823 3.75425 3.77225C3.83131 3.76627 3.9087 3.77752 3.98126 3.80526C4.05381 3.83299 4.11985 3.87658 4.17496 3.93309L6.55713 6.34436L8.64537 0.371835C8.67517 0.286608 8.72417 0.210101 8.78825 0.14876C8.85232 0.0874198 8.92959 0.0430429 9.01355 0.0193689C9.09751 -0.00430506 9.18569 -0.00658254 9.27066 0.0127282C9.35564 0.032039 9.43492 0.0723723 9.50183 0.13033C11.4526 1.82369 15.9999 6.35851 15.9999 11.8867ZM14.9146 11.8867C14.9146 7.32076 11.4191 3.4114 9.39149 1.52842L7.28516 7.55283C7.25418 7.64162 7.20237 7.7209 7.13448 7.78345C7.06658 7.846 6.98475 7.88983 6.89645 7.91093C6.80816 7.93204 6.7162 7.92975 6.62897 7.90427C6.54174 7.8788 6.46201 7.83095 6.39705 7.76509L3.86475 5.19721C2.31372 7.46509 1.52961 9.71694 1.52961 11.8867C1.52961 13.7382 2.23471 15.5138 3.4898 16.823C4.74488 18.1322 6.44715 18.8677 8.22211 18.8677C9.99708 18.8677 11.6993 18.1322 12.9544 16.823C14.2095 15.5138 14.9146 13.7382 14.9146 11.8867Z" fill="#181818"/>
</svg>
