<svg width="17" height="20" viewBox="0 0 17 20" fill="none" xmlns="http://www.w3.org/2000/svg">
<path d="M13.0917 3.28538C11.9402 2.07196 10.6445 1.00415 9.23339 0.105784C9.11818 0.0365672 8.98631 0 8.85191 0C8.71751 0 8.58564 0.0365672 8.47043 0.105784C7.05935 1.00415 5.7636 2.07196 4.61215 3.28538C2.05477 5.97053 0.703857 8.93253 0.703857 11.8519C0.703857 14.0129 1.56231 16.0854 3.09037 17.6135C4.61842 19.1415 6.69091 20 8.85191 20C11.0129 20 13.0854 19.1415 14.6135 17.6135C16.1415 16.0854 17 14.0129 17 11.8519C17 8.93253 15.6491 5.97053 13.0917 3.28538ZM5.88898 15.5556C5.88898 12.9936 7.97507 11.1779 8.85191 10.5279C9.72968 11.176 11.8148 12.9936 11.8148 15.5556C11.8148 16.3414 11.5027 17.0951 10.947 17.6507C10.3914 18.2064 9.63773 18.5185 8.85191 18.5185C8.06609 18.5185 7.31246 18.2064 6.7568 17.6507C6.20115 17.0951 5.88898 16.3414 5.88898 15.5556ZM13.0435 17.0306C13.2109 16.5568 13.2964 16.0581 13.2963 15.5556C13.2963 11.4816 9.39913 9.09364 9.23339 8.99457C9.11818 8.92535 8.98631 8.88879 8.85191 8.88879C8.71751 8.88879 8.58564 8.92535 8.47043 8.99457C8.3047 9.09364 4.40752 11.4816 4.40752 15.5556C4.40744 16.0581 4.49292 16.5568 4.66029 17.0306C3.8875 16.4067 3.26412 15.6179 2.83587 14.7218C2.40761 13.8257 2.18533 12.8451 2.18532 11.8519C2.18532 8.66587 4.07419 6.00479 5.65936 4.33444C6.62587 3.32193 7.6959 2.41357 8.85191 1.62429C10.0081 2.41333 11.0782 3.32171 12.0445 4.33444C14.9157 7.36126 15.5185 10.0927 15.5185 11.8519C15.5185 12.8451 15.2962 13.8257 14.868 14.7218C14.4397 15.6179 13.8163 16.4067 13.0435 17.0306Z" fill="#181818"/>
</svg>
