<svg width="18" height="19" viewBox="0 0 18 19" fill="none" xmlns="http://www.w3.org/2000/svg">
<path d="M9 0.5C7.21997 0.5 5.47991 1.02784 3.99987 2.01677C2.51983 3.00571 1.36628 4.41131 0.685088 6.05585C0.00389956 7.70038 -0.17433 9.50998 0.172936 11.2558C0.520203 13.0016 1.37737 14.6053 2.63604 15.864C3.89471 17.1226 5.49836 17.9798 7.24419 18.3271C8.99002 18.6743 10.7996 18.4961 12.4442 17.8149C14.0887 17.1337 15.4943 15.9802 16.4832 14.5001C17.4722 13.0201 18 11.28 18 9.5C17.9975 7.11382 17.0485 4.8261 15.3612 3.13882C13.6739 1.45154 11.3862 0.50252 9 0.5ZM9 17.1154C7.49382 17.1154 6.02146 16.6687 4.76912 15.832C3.51678 14.9952 2.5407 13.8058 1.96431 12.4143C1.38792 11.0227 1.23711 9.49155 1.53095 8.01431C1.82479 6.53707 2.55008 5.18014 3.61511 4.11511C4.68014 3.05008 6.03708 2.32478 7.51431 2.03094C8.99155 1.7371 10.5228 1.88791 11.9143 2.4643C13.3058 3.04069 14.4952 4.01677 15.332 5.26912C16.1688 6.52146 16.6154 7.99382 16.6154 9.5C16.6131 11.519 15.81 13.4547 14.3824 14.8824C12.9547 16.31 11.019 17.1131 9 17.1154ZM14.5385 9.5C14.5385 9.68361 14.4655 9.8597 14.3357 9.98953C14.2059 10.1194 14.0298 10.1923 13.8462 10.1923H9C8.81639 10.1923 8.6403 10.1194 8.51047 9.98953C8.38063 9.8597 8.30769 9.68361 8.30769 9.5V4.65385C8.30769 4.47023 8.38063 4.29414 8.51047 4.16431C8.6403 4.03448 8.81639 3.96154 9 3.96154C9.18361 3.96154 9.3597 4.03448 9.48954 4.16431C9.61937 4.29414 9.69231 4.47023 9.69231 4.65385V8.80769H13.8462C14.0298 8.80769 14.2059 8.88063 14.3357 9.01046C14.4655 9.1403 14.5385 9.31639 14.5385 9.5Z" fill="#181818"/>
</svg>
