<svg width="22" height="19" viewBox="0 0 22 19" fill="none" xmlns="http://www.w3.org/2000/svg">
<path d="M21.4407 11.4406H17.4583C17.5026 11.1386 17.5251 10.834 17.5254 10.5289C17.5254 8.83626 16.8379 7.21295 15.6142 6.01608C14.3904 4.8192 12.7306 4.1468 11 4.1468C9.26935 4.1468 7.60958 4.8192 6.38583 6.01608C5.16207 7.21295 4.47458 8.83626 4.47458 10.5289C4.47493 10.834 4.49736 11.1386 4.5417 11.4406H0.559322C0.410981 11.4406 0.268715 11.4983 0.163822 11.6008C0.0589284 11.7034 0 11.8426 0 11.9877C0 12.1327 0.0589284 12.2719 0.163822 12.3745C0.268715 12.4771 0.410981 12.5347 0.559322 12.5347H21.4407C21.589 12.5347 21.7313 12.4771 21.8362 12.3745C21.9411 12.2719 22 12.1327 22 11.9877C22 11.8426 21.9411 11.7034 21.8362 11.6008C21.7313 11.4983 21.589 11.4406 21.4407 11.4406ZM5.59322 10.5289C5.59311 9.79583 5.74885 9.07075 6.05054 8.39969C6.35223 7.72863 6.79329 7.12624 7.34571 6.63078C7.89812 6.13533 8.54983 5.75761 9.25947 5.52163C9.9691 5.28564 10.7211 5.19654 11.4679 5.25997C12.2146 5.3234 12.9397 5.53799 13.5971 5.89011C14.2545 6.24222 14.8298 6.72418 15.2866 7.30537C15.7434 7.88656 16.0717 8.5543 16.2506 9.26618C16.4294 9.97807 16.455 10.7186 16.3257 11.4406H5.67432C5.62069 11.1395 5.59356 10.8345 5.59322 10.5289ZM19.0169 15.6346C19.0169 15.7797 18.958 15.9188 18.8531 16.0214C18.7482 16.124 18.606 16.1816 18.4576 16.1816H3.54237C3.39403 16.1816 3.25177 16.124 3.14687 16.0214C3.04198 15.9188 2.98305 15.7797 2.98305 15.6346C2.98305 15.4895 3.04198 15.3503 3.14687 15.2478C3.25177 15.1452 3.39403 15.0875 3.54237 15.0875H18.4576C18.606 15.0875 18.7482 15.1452 18.8531 15.2478C18.958 15.3503 19.0169 15.4895 19.0169 15.6346ZM6.02483 1.29219C5.95845 1.16234 5.94752 1.01201 5.99446 0.874288C6.0414 0.736562 6.14236 0.622714 6.27513 0.55779C6.40789 0.492865 6.56159 0.482182 6.70241 0.528091C6.84323 0.573999 6.95963 0.672739 7.02602 0.802588L7.77178 2.26135C7.83804 2.3912 7.84884 2.54148 7.80182 2.67912C7.75479 2.81676 7.65378 2.93049 7.52102 2.99529C7.38825 3.0601 7.2346 3.07066 7.09387 3.02467C6.95314 2.97868 6.83685 2.87989 6.77059 2.75004L6.02483 1.29219ZM0.804491 5.90826C0.837285 5.84395 0.882712 5.78659 0.938177 5.73946C0.993643 5.69233 1.05806 5.65635 1.12775 5.63357C1.19744 5.6108 1.27103 5.60167 1.34433 5.60672C1.41762 5.61177 1.48918 5.6309 1.55492 5.66301L3.04644 6.39239C3.17921 6.45719 3.28021 6.57092 3.32724 6.70856C3.37427 6.84621 3.36346 6.99648 3.2972 7.12633C3.23094 7.25618 3.11466 7.35497 2.97393 7.40096C2.83319 7.44695 2.67955 7.43639 2.54678 7.37158L1.05525 6.6422C0.989502 6.61013 0.930855 6.5657 0.882664 6.51145C0.834473 6.4572 0.797683 6.3942 0.774396 6.32604C0.751109 6.25789 0.741781 6.18591 0.746945 6.11422C0.752108 6.04254 0.771663 5.97255 0.804491 5.90826ZM18.7028 7.12633C18.67 7.06204 18.6504 6.99205 18.6452 6.92036C18.6401 6.84868 18.6494 6.7767 18.6727 6.70855C18.696 6.64039 18.7328 6.57739 18.781 6.52314C18.8292 6.46889 18.8878 6.42446 18.9536 6.39239L20.4451 5.66301C20.5779 5.5982 20.7315 5.58764 20.8722 5.63363C21.013 5.67962 21.1292 5.77841 21.1955 5.90826C21.2618 6.03811 21.2726 6.18838 21.2255 6.32602C21.1785 6.46367 21.0775 6.5774 20.9447 6.6422L19.4532 7.37158C19.3875 7.40369 19.3159 7.42282 19.2426 7.42787C19.1693 7.43292 19.0957 7.42379 19.0261 7.40102C18.9564 7.37824 18.8919 7.34226 18.8365 7.29513C18.781 7.248 18.7356 7.19064 18.7028 7.12633ZM14.2282 2.26135L14.974 0.802588C15.0404 0.672739 15.1568 0.573999 15.2976 0.528091C15.4384 0.482182 15.5921 0.492865 15.7249 0.55779C15.8576 0.622714 15.9586 0.736562 16.0055 0.874288C16.0525 1.01201 16.0416 1.16234 15.9752 1.29219L15.2294 2.75095C15.1631 2.8808 15.0469 2.97959 14.9061 3.02558C14.7654 3.07158 14.6117 3.06101 14.479 2.9962C14.3462 2.9314 14.2452 2.81767 14.1982 2.68003C14.1512 2.54239 14.162 2.39211 14.2282 2.26226V2.26135Z" fill="#FF9500"/>
<path d="M16.2506 18.3398C16.3555 18.2372 16.4144 18.098 16.4144 17.953C16.4144 17.8079 16.3555 17.6687 16.2506 17.5661C16.1457 17.4636 16.0034 17.4059 15.8551 17.4059H6.05864C5.9103 17.4059 5.76804 17.4636 5.66314 17.5661C5.55825 17.6687 5.49932 17.8079 5.49932 17.953C5.49932 18.098 5.55825 18.2372 5.66314 18.3398C5.76804 18.4424 5.9103 18.5 6.05864 18.5H15.8551C16.0034 18.5 16.1457 18.4424 16.2506 18.3398Z" fill="#FF9500"/>
</svg>
