<svg width="18" height="10" viewBox="0 0 18 10" fill="none" xmlns="http://www.w3.org/2000/svg">
<path d="M17.7602 1.48801L9.57883 9.66941C9.50285 9.74548 9.41262 9.80582 9.3133 9.847C9.21398 9.88817 9.10752 9.90936 9 9.90936C8.89248 9.90936 8.78602 9.88817 8.6867 9.847C8.58738 9.80582 8.49715 9.74548 8.42116 9.66941L0.239761 1.48801C0.0862446 1.33449 0 1.12628 0 0.909172C0 0.692066 0.0862446 0.483853 0.239761 0.330337C0.393277 0.17682 0.60149 0.0905762 0.818595 0.0905762C1.0357 0.0905762 1.24391 0.17682 1.39743 0.330337L9 7.93393L16.6026 0.330337C16.6786 0.254323 16.7688 0.194026 16.8681 0.152888C16.9675 0.111749 17.0739 0.0905762 17.1814 0.0905762C17.2889 0.0905762 17.3953 0.111749 17.4947 0.152888C17.594 0.194026 17.6842 0.254323 17.7602 0.330337C17.8363 0.40635 17.8965 0.496592 17.9377 0.595908C17.9788 0.695225 18 0.801672 18 0.909172C18 1.01667 17.9788 1.12312 17.9377 1.22243C17.8965 1.32175 17.8363 1.41199 17.7602 1.48801Z" fill="#181818"/>
</svg>
