<svg width="22" height="23" viewBox="0 0 22 23" fill="none" xmlns="http://www.w3.org/2000/svg">
<path d="M10.4407 3.29661V1.05932C10.4407 0.910981 10.4996 0.768715 10.6045 0.663822C10.7094 0.558928 10.8517 0.5 11 0.5C11.1483 0.5 11.2906 0.558928 11.3955 0.663822C11.5004 0.768715 11.5593 0.910981 11.5593 1.05932V3.29661C11.5593 3.44495 11.5004 3.58722 11.3955 3.69211C11.2906 3.797 11.1483 3.85593 11 3.85593C10.8517 3.85593 10.7094 3.797 10.6045 3.69211C10.4996 3.58722 10.4407 3.44495 10.4407 3.29661ZM16.7797 11.5C16.7797 12.6431 16.4407 13.7605 15.8056 14.711C15.1705 15.6615 14.2679 16.4023 13.2118 16.8397C12.1557 17.2772 10.9936 17.3916 9.87244 17.1686C8.7513 16.9456 7.72146 16.3951 6.91316 15.5868C6.10486 14.7785 5.5544 13.7487 5.33139 12.6276C5.10838 11.5064 5.22284 10.3443 5.66029 9.28822C6.09774 8.23212 6.83853 7.32946 7.78899 6.69439C8.73945 6.05931 9.85689 5.72034 11 5.72034C12.5323 5.72207 14.0014 6.33155 15.0849 7.41507C16.1685 8.49859 16.7779 9.96767 16.7797 11.5ZM15.661 11.5C15.661 10.5781 15.3877 9.67698 14.8755 8.91048C14.3633 8.14398 13.6354 7.54656 12.7837 7.19378C11.932 6.841 10.9948 6.7487 10.0907 6.92854C9.18653 7.10839 8.35602 7.55231 7.70416 8.20416C7.05231 8.85602 6.60839 9.68653 6.42854 10.5907C6.2487 11.4948 6.341 12.432 6.69378 13.2837C7.04656 14.1354 7.64398 14.8633 8.41048 15.3755C9.17698 15.8877 10.0781 16.161 11 16.161C12.2357 16.1595 13.4204 15.668 14.2942 14.7942C15.168 13.9204 15.6595 12.7357 15.661 11.5ZM4.63864 5.92915C4.68985 5.98411 4.7516 6.02818 4.82021 6.05875C4.88882 6.08932 4.96288 6.10576 5.03798 6.10709C5.11308 6.10841 5.18768 6.0946 5.25733 6.06646C5.32697 6.03833 5.39024 5.99646 5.44335 5.94335C5.49646 5.89024 5.53833 5.82697 5.56646 5.75733C5.5946 5.68768 5.60841 5.61308 5.60709 5.53798C5.60576 5.46288 5.58932 5.38882 5.55875 5.32021C5.52818 5.2516 5.48411 5.18985 5.42915 5.13864L3.93763 3.64712C3.8316 3.54832 3.69136 3.49453 3.54646 3.49709C3.40156 3.49965 3.2633 3.55835 3.16082 3.66082C3.05835 3.7633 2.99965 3.90156 2.99709 4.04646C2.99453 4.19136 3.04832 4.3316 3.14712 4.43763L4.63864 5.92915ZM4.63864 17.0708L3.14712 18.5624C3.09217 18.6136 3.04809 18.6753 3.01752 18.7439C2.98695 18.8125 2.97051 18.8866 2.96919 18.9617C2.96786 19.0368 2.98168 19.1114 3.00981 19.1811C3.03794 19.2507 3.07981 19.314 3.13292 19.3671C3.18603 19.4202 3.2493 19.4621 3.31894 19.4902C3.38859 19.5183 3.46319 19.5321 3.53829 19.5308C3.61339 19.5295 3.68745 19.5131 3.75606 19.4825C3.82467 19.4519 3.88642 19.4078 3.93763 19.3529L5.42915 17.8614C5.48411 17.8102 5.52818 17.7484 5.55875 17.6798C5.58932 17.6112 5.60576 17.5371 5.60709 17.462C5.60841 17.3869 5.5946 17.3123 5.56646 17.2427C5.53833 17.173 5.49646 17.1098 5.44335 17.0567C5.39024 17.0035 5.32697 16.9617 5.25733 16.9335C5.18768 16.9054 5.11308 16.8916 5.03798 16.8929C4.96288 16.8942 4.88882 16.9107 4.82021 16.9412C4.7516 16.9718 4.68985 17.0159 4.63864 17.0708ZM16.9661 6.09322C17.1144 6.09309 17.2566 6.03408 17.3614 5.92915L18.8529 4.43763C18.9517 4.3316 19.0055 4.19136 19.0029 4.04646C19.0004 3.90156 18.9417 3.7633 18.8392 3.66082C18.7367 3.55835 18.5984 3.49965 18.4535 3.49709C18.3086 3.49453 18.1684 3.54832 18.0624 3.64712L16.5708 5.13864C16.4927 5.21686 16.4395 5.31648 16.418 5.42492C16.3965 5.53335 16.4075 5.64573 16.4498 5.74788C16.4921 5.85002 16.5637 5.93734 16.6556 5.9988C16.7475 6.06027 16.8555 6.09312 16.9661 6.09322ZM17.3614 17.0708C17.2553 16.972 17.1151 16.9183 16.9702 16.9208C16.8253 16.9234 16.687 16.9821 16.5846 17.0846C16.4821 17.187 16.4234 17.3253 16.4208 17.4702C16.4183 17.6151 16.472 17.7553 16.5708 17.8614L18.0624 19.3529C18.1684 19.4517 18.3086 19.5055 18.4535 19.5029C18.5984 19.5004 18.7367 19.4417 18.8392 19.3392C18.9417 19.2367 19.0004 19.0984 19.0029 18.9535C19.0055 18.8086 18.9517 18.6684 18.8529 18.5624L17.3614 17.0708ZM3.35593 11.5C3.35593 11.3517 3.297 11.2094 3.19211 11.1045C3.08722 10.9996 2.94495 10.9407 2.79661 10.9407H0.559322C0.410981 10.9407 0.268715 10.9996 0.163822 11.1045C0.0589284 11.2094 0 11.3517 0 11.5C0 11.6483 0.0589284 11.7906 0.163822 11.8955C0.268715 12.0004 0.410981 12.0593 0.559322 12.0593H2.79661C2.94495 12.0593 3.08722 12.0004 3.19211 11.8955C3.297 11.7906 3.35593 11.6483 3.35593 11.5ZM11 19.1441C10.8517 19.1441 10.7094 19.203 10.6045 19.3079C10.4996 19.4128 10.4407 19.555 10.4407 19.7034V21.9407C10.4407 22.089 10.4996 22.2313 10.6045 22.3362C10.7094 22.4411 10.8517 22.5 11 22.5C11.1483 22.5 11.2906 22.4411 11.3955 22.3362C11.5004 22.2313 11.5593 22.089 11.5593 21.9407V19.7034C11.5593 19.555 11.5004 19.4128 11.3955 19.3079C11.2906 19.203 11.1483 19.1441 11 19.1441ZM21.4407 10.9407H19.2034C19.055 10.9407 18.9128 10.9996 18.8079 11.1045C18.703 11.2094 18.6441 11.3517 18.6441 11.5C18.6441 11.6483 18.703 11.7906 18.8079 11.8955C18.9128 12.0004 19.055 12.0593 19.2034 12.0593H21.4407C21.589 12.0593 21.7313 12.0004 21.8362 11.8955C21.9411 11.7906 22 11.6483 22 11.5C22 11.3517 21.9411 11.2094 21.8362 11.1045C21.7313 10.9996 21.589 10.9407 21.4407 10.9407Z" fill="#0084FF"/>
</svg>
