<svg width="19" height="12" viewBox="0 0 19 12" fill="none" xmlns="http://www.w3.org/2000/svg">
<path d="M18.3519 1.09919L6.5788 11.5835C6.47533 11.6756 6.33506 11.7272 6.18882 11.7272C6.04258 11.7272 5.90231 11.6756 5.79884 11.5835L0.648114 6.99663C0.550633 6.90347 0.497563 6.78024 0.500086 6.65292C0.502609 6.5256 0.560526 6.40413 0.661637 6.31408C0.762748 6.22404 0.899158 6.17246 1.04213 6.17022C1.1851 6.16797 1.32347 6.21523 1.42808 6.30204L6.18882 10.5408L17.5719 0.404606C17.6765 0.317796 17.8149 0.270535 17.9579 0.272782C18.1008 0.275028 18.2373 0.326606 18.3384 0.416649C18.4395 0.506692 18.4974 0.628169 18.4999 0.755489C18.5024 0.882809 18.4494 1.00603 18.3519 1.09919Z" fill="#202AF4"/>
</svg>
