<svg width="15" height="20" viewBox="0 0 15 20" fill="none" xmlns="http://www.w3.org/2000/svg">
<path d="M14.9866 9.20621C14.9676 9.12483 14.9288 9.04938 14.8736 8.98656C14.8185 8.92374 14.7487 8.87548 14.6705 8.84606L9.65114 6.9639L10.9223 0.608135C10.944 0.499657 10.9297 0.387067 10.8816 0.287441C10.8335 0.187814 10.7543 0.106589 10.6558 0.0560838C10.5574 0.00557889 10.4452 -0.0114498 10.3362 0.00758082C10.2273 0.0266114 10.1275 0.0806629 10.052 0.161537L0.560701 10.3308C0.5037 10.3919 0.462641 10.4661 0.441159 10.5469C0.419676 10.6276 0.418431 10.7124 0.437535 10.7938C0.456639 10.8752 0.495502 10.9506 0.550685 11.0133C0.605869 11.0761 0.675671 11.1243 0.753916 11.1536L5.77328 13.0358L4.50212 19.3915C4.4803 19.5001 4.49447 19.6127 4.54249 19.7124C4.59052 19.8122 4.66977 19.8935 4.76822 19.9441C4.84016 19.9807 4.9197 19.9998 5.00042 20C5.07021 20 5.13927 19.9856 5.20327 19.9578C5.26727 19.9299 5.32486 19.8892 5.37244 19.8381L14.8637 9.66891C14.9206 9.60781 14.9616 9.53363 14.983 9.45293C15.0044 9.37223 15.0057 9.2875 14.9866 9.20621ZM5.84785 17.8357L6.85206 12.8121C6.87588 12.6937 6.85682 12.5708 6.79829 12.4652C6.73976 12.3596 6.64557 12.2783 6.53258 12.2358L1.82084 10.4689L9.57148 2.16403L8.56981 7.18847C8.54599 7.30682 8.56505 7.42977 8.62359 7.53535C8.68212 7.64093 8.77631 7.72224 8.8893 7.76473L13.601 9.53163L5.84785 17.8357Z" fill="#181818"/>
</svg>
