<svg width="20" height="20" viewBox="0 0 20 20" fill="none" xmlns="http://www.w3.org/2000/svg">
<path d="M10.0009 5.81789C9.17377 5.81789 8.3652 6.06317 7.67745 6.52271C6.98971 6.98224 6.45368 7.6354 6.13715 8.39958C5.82061 9.16375 5.73779 10.0046 5.89916 10.8159C6.06053 11.6271 6.45884 12.3723 7.04371 12.9572C7.62859 13.5421 8.37377 13.9404 9.18502 14.1017C9.99627 14.2631 10.8371 14.1803 11.6013 13.8638C12.3655 13.5472 13.0187 13.0112 13.4782 12.3234C13.9377 11.6357 14.183 10.8271 14.183 10C14.1816 8.89128 13.7405 7.82838 12.9565 7.0444C12.1725 6.26041 11.1096 5.81934 10.0009 5.81789ZM10.0009 13.0911C9.38954 13.0911 8.7919 12.9098 8.28357 12.5702C7.77524 12.2305 7.37904 11.7477 7.14508 11.1829C6.91113 10.6181 6.84991 9.99657 6.96918 9.39695C7.08845 8.79733 7.38285 8.24655 7.81516 7.81425C8.24746 7.38194 8.79824 7.08754 9.39786 6.96827C9.99748 6.849 10.619 6.91022 11.1838 7.14418C11.7487 7.37813 12.2314 7.77433 12.5711 8.28266C12.9107 8.79099 13.092 9.38863 13.092 10C13.092 10.8198 12.7664 11.6061 12.1867 12.1857C11.607 12.7654 10.8207 13.0911 10.0009 13.0911ZM19.8198 8.14533C19.8039 8.06931 19.7721 7.99754 19.7263 7.93483C19.6805 7.87211 19.6219 7.81989 19.5543 7.78166L16.7868 6.20156L16.7486 6.13701L16.7377 3.0177C16.7377 2.93891 16.7207 2.86106 16.6877 2.78949C16.6548 2.71792 16.6067 2.65434 16.5468 2.60313C15.5803 1.78587 14.4675 1.1593 13.2675 0.756641C13.1954 0.732385 13.1189 0.723495 13.0431 0.730541C12.9674 0.737587 12.8939 0.760413 12.8275 0.797553L10.0427 2.35039H9.95181L7.17435 0.795735C7.10761 0.758485 7.03379 0.735676 6.95768 0.728784C6.88156 0.721893 6.80484 0.731074 6.7325 0.755732C5.53262 1.15957 4.42039 1.78772 3.45501 2.60677C3.39492 2.65771 3.34657 2.72107 3.3133 2.79247C3.28003 2.86388 3.26262 2.94165 3.26227 3.02043L3.24772 6.14246C3.23499 6.16337 3.22226 6.18519 3.21045 6.20701L0.44662 7.77894C0.378698 7.81775 0.319919 7.87072 0.274271 7.93425C0.228623 7.99778 0.197174 8.07039 0.182057 8.14714C-0.0606857 9.37107 -0.0606857 10.6307 0.182057 11.8547C0.197876 11.9307 0.229741 12.0025 0.275522 12.0652C0.321304 12.1279 0.379946 12.1801 0.44753 12.2183L3.21317 13.7939L3.25136 13.8584L3.26227 16.9777C3.26182 17.0574 3.27885 17.1363 3.31215 17.2087C3.34545 17.2811 3.39421 17.3453 3.45501 17.3969C4.42156 18.2141 5.53432 18.8407 6.73432 19.2434C6.80646 19.2676 6.88288 19.2765 6.95866 19.2695C7.03445 19.2624 7.10792 19.2396 7.17435 19.2024L9.95727 17.6496H10.0482L12.8266 19.2043C12.9078 19.2492 12.9991 19.273 13.092 19.2734C13.1517 19.2736 13.2111 19.2638 13.2675 19.2443C14.4658 18.8399 15.5764 18.2118 16.5404 17.3932C16.6005 17.3423 16.6489 17.2789 16.6821 17.2075C16.7154 17.1361 16.7328 17.0583 16.7332 16.9796L16.7477 13.8575C16.7605 13.8366 16.7732 13.8148 16.785 13.793L19.5506 12.2211C19.6187 12.1823 19.6777 12.1294 19.7235 12.0659C19.7693 12.0023 19.8009 11.9297 19.8161 11.8529C20.0601 10.6292 20.0613 9.36948 19.8198 8.14533ZM18.797 11.3992L16.1213 12.9184C16.0346 12.968 15.9629 13.0403 15.914 13.1275C15.8604 13.2184 15.804 13.3193 15.7449 13.413C15.6911 13.4991 15.6625 13.5986 15.6622 13.7002L15.6477 16.7195C14.8954 17.3222 14.0504 17.799 13.1457 18.1315L10.4555 16.6259C10.3741 16.5802 10.2824 16.5561 10.1891 16.5559H10.1764C10.0636 16.5559 9.94909 16.5559 9.83635 16.5559C9.73881 16.5536 9.64242 16.5774 9.55724 16.625L6.85978 18.1306C5.95386 17.7998 5.10765 17.3242 4.35416 16.7223L4.34325 13.7066C4.34296 13.605 4.31431 13.5055 4.26052 13.4193C4.20233 13.3284 4.14505 13.2302 4.09141 13.1338C4.04304 13.0466 3.97166 12.9743 3.88504 12.9247L1.2094 11.4001C1.05386 10.4735 1.05386 9.52742 1.2094 8.60081L3.88049 7.08162C3.96859 7.0325 4.04154 6.96018 4.09141 6.87251C4.14505 6.7816 4.20142 6.68068 4.26052 6.58704C4.31431 6.50085 4.34296 6.40135 4.34325 6.29975L4.3578 3.28045C5.10895 2.67811 5.95264 2.2013 6.85615 1.86854L9.54633 3.37409C9.63119 3.42249 9.7278 3.44641 9.82544 3.44319C9.93818 3.44319 10.0527 3.44319 10.1655 3.44319C10.263 3.44553 10.3594 3.42167 10.4446 3.37409L13.1402 1.86854C14.0461 2.19926 14.8923 2.67487 15.6458 3.27681L15.6567 6.29247C15.657 6.39407 15.6857 6.49357 15.7395 6.57976C15.7977 6.67068 15.8549 6.76887 15.9086 6.86524C15.957 6.9525 16.0283 7.02483 16.115 7.07434L18.7924 8.5999C18.9489 9.52636 18.9498 10.4724 18.7951 11.3992H18.797Z" fill="white"/>
</svg>
