<svg width="20" height="22" viewBox="0 0 20 22" fill="none" xmlns="http://www.w3.org/2000/svg">
<path d="M15.5001 14.144C14.976 14.1438 14.4572 14.2488 13.9745 14.4527C13.4917 14.6567 13.0548 14.9554 12.6896 15.3312L8.16253 12.4215C8.51863 11.5084 8.51863 10.4948 8.16253 9.5816L12.6896 6.67192C13.3696 7.36848 14.284 7.78773 15.2555 7.84839C16.227 7.90905 17.1865 7.60681 17.9479 7.00025C18.7092 6.3937 19.2182 5.52605 19.3762 4.56552C19.5342 3.60499 19.3299 2.62001 18.8029 1.80156C18.276 0.9831 17.4639 0.389472 16.5241 0.135764C15.5843 -0.117944 14.5837 -0.013657 13.7165 0.428406C12.8492 0.87047 12.177 1.61881 11.8301 2.52835C11.4833 3.43789 11.4865 4.44383 11.8391 5.35113L7.31212 8.2608C6.76698 7.70114 6.06732 7.31675 5.30259 7.15678C4.53785 6.99681 3.74279 7.06853 3.01902 7.36276C2.29526 7.657 1.67568 8.16038 1.23949 8.80857C0.8033 9.45675 0.570312 10.2203 0.570312 11.0016C0.570312 11.7829 0.8033 12.5464 1.23949 13.1946C1.67568 13.8428 2.29526 14.3461 3.01902 14.6404C3.74279 14.9346 4.53785 15.0063 5.30259 14.8464C6.06732 14.6864 6.76698 14.302 7.31212 13.7423L11.8391 16.652C11.5359 17.4342 11.491 18.2929 11.7111 19.1025C11.9312 19.912 12.4047 20.6298 13.0622 21.1508C13.7198 21.6718 14.5269 21.9685 15.3653 21.9976C16.2037 22.0267 17.0294 21.7866 17.7215 21.3125C18.4136 20.8383 18.9357 20.1551 19.2114 19.3627C19.4871 18.5704 19.5018 17.7106 19.2535 16.9093C19.0052 16.1079 18.5068 15.4072 17.8314 14.9096C17.156 14.412 16.339 14.1437 15.5001 14.144ZM15.5001 1.57435C15.9662 1.57435 16.4218 1.71257 16.8094 1.97154C17.197 2.23051 17.4991 2.59859 17.6775 3.02924C17.8558 3.45989 17.9025 3.93377 17.8116 4.39094C17.7206 4.84812 17.4962 5.26806 17.1666 5.59767C16.837 5.92727 16.417 6.15174 15.9598 6.24268C15.5027 6.33361 15.0288 6.28694 14.5981 6.10856C14.1675 5.93018 13.7994 5.6281 13.5404 5.24053C13.2815 4.85295 13.1432 4.39729 13.1432 3.93116C13.1432 3.30609 13.3916 2.70663 13.8335 2.26464C14.2755 1.82266 14.875 1.57435 15.5001 1.57435ZM4.50163 13.3584C4.03549 13.3584 3.57983 13.2202 3.19226 12.9612C2.80468 12.7022 2.5026 12.3341 2.32422 11.9035C2.14584 11.4728 2.09917 10.999 2.19011 10.5418C2.28104 10.0846 2.50551 9.66466 2.83511 9.33506C3.16472 9.00545 3.58466 8.78099 4.04184 8.69005C4.49901 8.59911 4.97289 8.64579 5.40354 8.82417C5.83419 9.00255 6.20227 9.30463 6.46124 9.6922C6.72021 10.0798 6.85843 10.5354 6.85843 11.0016C6.85843 11.6266 6.61013 12.2261 6.16814 12.6681C5.72615 13.1101 5.12669 13.3584 4.50163 13.3584ZM15.5001 20.4288C15.0339 20.4288 14.5783 20.2906 14.1907 20.0316C13.8031 19.7726 13.501 19.4046 13.3226 18.9739C13.1443 18.5432 13.0976 18.0694 13.1885 17.6122C13.2795 17.155 13.5039 16.7351 13.8335 16.4055C14.1631 16.0759 14.5831 15.8514 15.0403 15.7605C15.4974 15.6695 15.9713 15.7162 16.402 15.8946C16.8326 16.073 17.2007 16.375 17.4597 16.7626C17.7186 17.1502 17.8569 17.6059 17.8569 18.072C17.8569 18.6971 17.6086 19.2965 17.1666 19.7385C16.7246 20.1805 16.1251 20.4288 15.5001 20.4288Z" fill="#181818"/>
</svg>
