<svg width="22" height="23" viewBox="0 0 22 23" fill="none" xmlns="http://www.w3.org/2000/svg">
<path d="M21.8063 13.8729C21.7215 13.7882 21.6152 13.7282 21.4989 13.6994C21.3826 13.6705 21.2606 13.6738 21.1461 13.709C19.4295 14.2278 17.6042 14.2712 15.8649 13.8344C14.1256 13.3977 12.5374 12.4972 11.2695 11.229C10.0016 9.96077 9.10153 8.37229 8.66526 6.63285C8.22899 4.89341 8.27284 3.0682 8.79214 1.35172C8.82683 1.23725 8.82978 1.11552 8.80066 0.999509C8.77155 0.883501 8.71146 0.777582 8.62683 0.693064C8.5422 0.608547 8.4362 0.548606 8.32016 0.519646C8.20411 0.490686 8.08238 0.493793 7.96796 0.528637C5.69189 1.22693 3.69391 2.62502 2.2581 4.52411C0.63049 6.68535 -0.161659 9.36178 0.0274715 12.0607C0.216602 14.7597 1.37428 17.2995 3.28741 19.2126C5.20053 21.1257 7.74032 22.2834 10.4393 22.4725C13.1382 22.6617 15.8147 21.8695 17.9759 20.2419C19.875 18.8061 21.2731 16.8081 21.9714 14.532C22.0062 14.4175 22.0092 14.2957 21.9801 14.1796C21.9511 14.0635 21.891 13.9575 21.8063 13.8729ZM17.1847 19.1866C15.2776 20.617 12.9185 21.3114 10.5406 21.1424C8.16274 20.9734 5.92559 19.9524 4.23992 18.2667C2.55425 16.581 1.53319 14.3439 1.3642 11.966C1.19521 9.58806 1.88962 7.229 3.31996 5.32188C4.33875 3.97108 5.68353 2.90078 7.22851 2.21111C6.90324 3.99771 7.01607 5.83654 7.55733 7.56996C8.09859 9.30339 9.05213 10.8797 10.3362 12.1638C11.6203 13.4479 13.1966 14.4014 14.93 14.9427C16.6635 15.4839 18.5023 15.5968 20.2889 15.2715C19.6011 16.8185 18.5319 18.1656 17.1814 19.1866H17.1847Z" fill="#720CEF"/>
</svg>
