<svg width="20" height="20" viewBox="0 0 20 20" fill="none" xmlns="http://www.w3.org/2000/svg">
<path d="M19.068 8.6599L13.4003 6.59973L11.3401 0.932014C11.2386 0.658452 11.0557 0.42252 10.8162 0.255911C10.5766 0.0893028 10.2918 0 10 0C9.7082 0 9.42339 0.0893028 9.18383 0.255911C8.94428 0.42252 8.76145 0.658452 8.6599 0.932014L6.59973 6.59973L0.932014 8.6599C0.658452 8.76145 0.42252 8.94428 0.255911 9.18383C0.0893028 9.42339 0 9.7082 0 10C0 10.2918 0.0893028 10.5766 0.255911 10.8162C0.42252 11.0557 0.658452 11.2386 0.932014 11.3401L6.59973 13.4012L8.6599 19.068C8.76145 19.3415 8.94428 19.5775 9.18383 19.7441C9.42339 19.9107 9.7082 20 10 20C10.2918 20 10.5766 19.9107 10.8162 19.7441C11.0557 19.5775 11.2386 19.3415 11.3401 19.068L13.4012 13.4003L19.068 11.3401C19.3415 11.2386 19.5775 11.0557 19.7441 10.8162C19.9107 10.5766 20 10.2918 20 10C20 9.7082 19.9107 9.42339 19.7441 9.18383C19.5775 8.94428 19.3415 8.76145 19.068 8.6599ZM12.598 12.171C12.5 12.2067 12.4109 12.2634 12.3372 12.3372C12.2634 12.4109 12.2067 12.5 12.171 12.598L10 18.5677L7.82904 12.598C7.79335 12.5 7.73662 12.4109 7.66284 12.3372C7.58907 12.2634 7.50004 12.2067 7.402 12.171L1.43232 10L7.402 7.82904C7.50004 7.79335 7.58907 7.73662 7.66284 7.66284C7.73662 7.58907 7.79335 7.50004 7.82904 7.402L10 1.43232L12.171 7.402C12.2067 7.50004 12.2634 7.58907 12.3372 7.66284C12.4109 7.73662 12.5 7.79335 12.598 7.82904L18.5677 10L12.598 12.171Z" fill="#181818"/>
</svg>
