<svg width="22" height="20" viewBox="0 0 22 20" fill="none" xmlns="http://www.w3.org/2000/svg">
<path d="M12.6748 18.2927V6.58537C12.6748 6.13256 12.8726 5.69829 13.2248 5.37811C13.577 5.05793 14.0547 4.87805 14.5528 4.87805H19.9187C20.4167 4.87805 20.8944 5.05793 21.2466 5.37811C21.5988 5.69829 21.7967 6.13256 21.7967 6.58537V18.2927C21.7967 18.7455 21.5988 19.1798 21.2466 19.4999C20.8944 19.8201 20.4167 20 19.9187 20H14.5528C14.0547 20 13.577 19.8201 13.2248 19.4999C12.8726 19.1798 12.6748 18.7455 12.6748 18.2927ZM14.2845 18.2927C14.2845 18.3574 14.3128 18.4194 14.3631 18.4651C14.4134 18.5109 14.4816 18.5366 14.5528 18.5366H19.9187C19.9898 18.5366 20.058 18.5109 20.1084 18.4651C20.1587 18.4194 20.1869 18.3574 20.1869 18.2927V6.58537C20.1869 6.52068 20.1587 6.45864 20.1084 6.4129C20.058 6.36716 19.9898 6.34146 19.9187 6.34146H14.5528C14.4816 6.34146 14.4134 6.36716 14.3631 6.4129C14.3128 6.45864 14.2845 6.52068 14.2845 6.58537V18.2927ZM0.869873 18.2927V1.70732C0.869873 1.25451 1.06774 0.820246 1.41994 0.500062C1.77214 0.179878 2.24983 0 2.74792 0L8.11377 0C8.3604 0 8.60462 0.0441611 8.83247 0.129962C9.06033 0.215763 9.26736 0.341523 9.44176 0.500062C9.61615 0.658601 9.75448 0.846814 9.84886 1.05396C9.94324 1.2611 9.99182 1.48311 9.99182 1.70732V18.2927C9.99182 18.5169 9.94324 18.7389 9.84886 18.946C9.75448 19.1532 9.61615 19.3414 9.44176 19.4999C9.26736 19.6585 9.06033 19.7842 8.83247 19.87C8.60462 19.9558 8.3604 20 8.11377 20H2.74792C2.24983 20 1.77214 19.8201 1.41994 19.4999C1.06774 19.1798 0.869873 18.7455 0.869873 18.2927ZM2.47963 18.2927C2.47963 18.3574 2.5079 18.4194 2.55821 18.4651C2.60852 18.5109 2.67677 18.5366 2.74792 18.5366H8.11377C8.18493 18.5366 8.25317 18.5109 8.30349 18.4651C8.3538 18.4194 8.38207 18.3574 8.38207 18.2927V1.70732C8.38207 1.64263 8.3538 1.58059 8.30349 1.53485C8.25317 1.48911 8.18493 1.46341 8.11377 1.46341H2.74792C2.67677 1.46341 2.60852 1.48911 2.55821 1.53485C2.5079 1.58059 2.47963 1.64263 2.47963 1.70732V18.2927Z" fill="white"/>
</svg>
