<svg width="49" height="59" viewBox="0 0 49 59" fill="none" xmlns="http://www.w3.org/2000/svg">
<path fill-rule="evenodd" clip-rule="evenodd" d="M3.0758 2.93847C1.88349 1.78173 0.694209 0.640567 0 0C0.633402 4.3162 1.15798 6.38653 2.62482 10.2491C3.83672 13.4403 4.57183 15.2619 6.47084 18.0986C8.1934 20.6716 9.32265 22.0597 11.6495 24.1026C11.7383 24.1805 11.8236 24.2556 11.906 24.3283C12.7513 25.0728 13.3032 25.559 14.3352 26.1921C15.216 26.7325 16.1036 27.1377 16.7015 27.3766C16.0783 27.9918 15.257 28.899 14.4872 29.9948C13.0756 32.0041 12.4273 33.2985 11.7661 35.6633C11.0684 38.1586 10.7619 39.7158 11.1833 42.2723C11.5213 44.3226 11.9306 45.5122 13.0785 47.2444C13.8369 48.3888 14.7709 49.3186 15.4246 49.8626C15.0598 48.3171 14.7311 45.9602 14.9382 43.462C15.0728 41.8374 15.2747 40.9307 15.7084 39.3593C16.3997 36.8544 16.947 35.4458 18.318 33.2383C19.2738 31.6993 20.0538 30.8511 21.1438 29.6658C21.341 29.4513 21.5484 29.2258 21.7688 28.9831C23.671 26.8889 24.728 25.9125 27.0235 23.9958C26.5131 23.9924 26.0308 24.0163 25.5483 24.0403C24.6033 24.0872 23.6575 24.1341 22.4984 23.9755C20.9308 23.761 20.0399 23.5603 18.5764 22.9587C15.8515 21.8388 14.426 20.6916 12.5515 18.4188C12.2681 18.0752 12.0144 17.7325 11.8573 17.5139C13.0734 18.1087 14.5038 18.7048 16.286 19.2068C17.5097 19.5515 19.4683 19.8932 19.4683 19.8932L37.7761 19.9237C35.7695 21.8149 34.0394 23.4742 31.6954 25.8006C31.2922 26.2009 30.9244 26.5637 30.5782 26.9052C29.2511 28.2143 28.2404 29.2113 26.76 30.8082C26.4584 31.1335 26.188 31.4159 25.9343 31.681C25.2572 32.3882 24.6987 32.9717 23.9831 33.9145C21.6766 36.9538 20.5816 38.97 19.6456 42.6689C19.0182 45.1484 18.7439 46.6321 18.9514 49.1813C18.9546 49.2202 18.9577 49.2586 18.9608 49.2965C19.0535 50.4396 19.1098 51.1335 19.4784 52.252C19.8908 53.5035 20.2622 54.1783 21.034 55.2464C22.0252 56.6181 23.2889 57.646 24.1858 58.2204C23.8565 56.802 23.5332 54.8067 23.4916 52.5926C23.4359 49.6232 23.4916 48.5509 24.4088 45.043C24.8142 43.5026 26.0122 39.8386 27.9204 36.9851C28.9367 35.4653 29.5089 34.8744 30.6564 33.6894C31.025 33.3088 31.453 32.8668 31.9741 32.313C33.522 30.6707 34.4201 29.7991 35.7244 28.5331C36.6449 27.6398 37.7675 26.5502 39.4635 24.855C40.3583 23.9598 40.7808 23.5285 41.384 22.9127C42.0002 22.2836 42.8052 21.4618 44.4952 19.7559C46.3904 17.8444 47.9562 16.2785 49 15.2363H21.3735C19.5493 15.094 16.524 14.4699 13.869 12.9384C12.5023 12.1501 11.7119 11.4191 10.7424 10.5225C10.4035 10.2091 10.0427 9.87536 9.62771 9.51191C8.0165 8.10073 6.93 6.94323 5.77389 5.71158C4.97359 4.85899 4.13994 3.97087 3.0758 2.93847ZM23.0511 10.8011C26.0337 10.8011 28.4516 8.38317 28.4516 5.40054C28.4516 2.4179 26.0337 0 23.0511 0C20.0685 0 17.6505 2.4179 17.6505 5.40054C17.6505 8.38317 20.0685 10.8011 23.0511 10.8011Z" fill="white"/>
</svg>
