<svg width="18" height="10" viewBox="0 0 18 10" fill="none" xmlns="http://www.w3.org/2000/svg">
<path d="M0.239761 8.42142L8.42117 0.240013C8.49715 0.163945 8.58738 0.1036 8.6867 0.0624275C8.78602 0.0212555 8.89248 6.48499e-05 9 6.48499e-05C9.10752 6.48499e-05 9.21398 0.0212555 9.3133 0.0624275C9.41262 0.1036 9.50285 0.163945 9.57884 0.240013L17.7602 8.42142C17.9138 8.57493 18 8.78315 18 9.00025C18 9.21736 17.9138 9.42557 17.7602 9.57909C17.6067 9.7326 17.3985 9.81885 17.1814 9.81885C16.9643 9.81885 16.7561 9.7326 16.6026 9.57909L9 1.97549L1.39743 9.57909C1.32142 9.6551 1.23118 9.7154 1.13186 9.75654C1.03254 9.79767 0.926096 9.81885 0.818596 9.81885C0.711096 9.81885 0.60465 9.79767 0.505333 9.75654C0.406017 9.7154 0.315775 9.6551 0.239761 9.57909C0.163748 9.50307 0.103451 9.41283 0.0623131 9.31352C0.0211754 9.2142 0 9.10775 0 9.00025C0 8.89275 0.0211754 8.78631 0.0623131 8.68699C0.103451 8.58767 0.163748 8.49743 0.239761 8.42142Z" fill="#181818"/>
</svg>
