<svg width="19" height="20" viewBox="0 0 19 20" fill="none" xmlns="http://www.w3.org/2000/svg">
<path d="M12.2562 5.92593C12.8422 5.92593 13.4151 5.75215 13.9023 5.42658C14.3896 5.101 14.7693 4.63825 14.9936 4.09684C15.2179 3.55543 15.2765 2.95968 15.1622 2.38492C15.0479 1.81016 14.7657 1.28221 14.3513 0.867833C13.9369 0.453455 13.409 0.17126 12.8342 0.0569338C12.2595 -0.0573927 11.6637 0.0012838 11.1223 0.225543C10.5809 0.449803 10.1181 0.829573 9.79257 1.31683C9.467 1.80409 9.29322 2.37695 9.29322 2.96296C9.29322 3.74879 9.60539 4.50243 10.1611 5.0581C10.7167 5.61376 11.4704 5.92593 12.2562 5.92593ZM12.2562 1.48148C12.5492 1.48148 12.8356 1.56837 13.0793 1.73116C13.3229 1.89394 13.5128 2.12532 13.6249 2.39603C13.737 2.66673 13.7664 2.96461 13.7092 3.25199C13.652 3.53937 13.5109 3.80334 13.3037 4.01053C13.0966 4.21772 12.8326 4.35882 12.5452 4.41598C12.2578 4.47314 11.9599 4.4438 11.6892 4.33167C11.4185 4.21954 11.1872 4.02966 11.0244 3.78603C10.8616 3.5424 10.7747 3.25597 10.7747 2.96296C10.7747 2.57005 10.9308 2.19323 11.2086 1.9154C11.4864 1.63757 11.8633 1.48148 12.2562 1.48148ZM18.4886 10.8037C18.4321 10.8296 17.7951 11.1074 16.6673 11.1074C15.3849 11.1074 13.4682 10.7481 11.0478 9.25556C10.6795 10.3014 10.2012 11.3051 9.621 12.25C10.6631 12.5708 11.6433 13.0658 12.5201 13.7139C14.2858 15.0602 15.2191 16.9769 15.2191 19.2593C15.2191 19.4557 15.1411 19.6441 15.0022 19.783C14.8633 19.922 14.6749 20 14.4784 20C14.2819 20 14.0935 19.922 13.9546 19.783C13.8157 19.6441 13.7377 19.4557 13.7377 19.2593C13.7377 15.3981 10.5256 14.0083 8.7247 13.5324C8.67378 13.5972 8.621 13.663 8.56822 13.7269C6.7497 15.9306 4.471 17.0769 1.93581 17.0769C1.64705 17.0782 1.35841 17.0649 1.071 17.037C0.874542 17.0174 0.693935 16.9205 0.568911 16.7677C0.443887 16.6149 0.384686 16.4187 0.404332 16.2222C0.423977 16.0258 0.52086 15.8452 0.673668 15.7201C0.826475 15.5951 1.02269 15.5359 1.21915 15.5556C3.61915 15.7944 5.70711 14.862 7.42285 12.7778C8.57933 11.3759 9.36729 9.66574 9.76081 8.42593C6.15711 6.3287 3.85526 8.11389 3.83026 8.13333C3.7548 8.19777 3.66717 8.24638 3.57256 8.2763C3.47796 8.30621 3.37831 8.31681 3.27952 8.30747C3.18074 8.29813 3.08484 8.26904 2.99752 8.22193C2.9102 8.17482 2.83323 8.11064 2.77118 8.03321C2.70914 7.95578 2.66329 7.86667 2.63634 7.77118C2.6094 7.67568 2.60191 7.57575 2.61433 7.47731C2.62675 7.37887 2.65882 7.28392 2.70863 7.19811C2.75845 7.1123 2.825 7.03737 2.90433 6.97778C3.04322 6.86667 6.35063 4.29259 11.1923 7.58611C15.4025 10.4481 17.8525 9.46667 17.8756 9.45556C17.9644 9.41365 18.0606 9.38979 18.1586 9.38537C18.2566 9.38095 18.3546 9.39606 18.4467 9.42982C18.5389 9.46358 18.6234 9.51532 18.6954 9.58202C18.7674 9.64872 18.8254 9.72907 18.8661 9.81839C18.9068 9.90771 18.9293 10.0042 18.9323 10.1023C18.9354 10.2004 18.9189 10.2981 18.8839 10.3898C18.8488 10.4815 18.7959 10.5653 18.7282 10.6363C18.6605 10.7074 18.5794 10.7643 18.4895 10.8037H18.4886Z" fill="white"/>
</svg>
